# xmcd
#
# Track frame offsets:
#	150
#	15015
#	17832
#	28494
#	40914
#	51000
#	69694
#	85048
#	93029
#	101099
#	110808
#	121533
#	136365
#	149160
#	165217
#	182899
#	201922
#	207359
#	214119
#	221112
#	238803
#	249198
#	262657
#	273751
#	289360
#	298710
#	311730
#
# Disc length: 4397 seconds
#
# Revision: 0
# Processed by: cddbd v1.5.2PL0 Copyright (c) Steve Scherf et al.
# Submitted via: FairStars CD Ripper 1.30
#
DISCID=91112b1b
DTITLE=Johnny Cash - Live at Deutschlandhalle, Berlin, Germany - 15 sept. 1975
DYEAR=1975
DGENRE=country
TTITLE0=Ring Of Fire
TTITLE1=(Interlude)
TTITLE2=Man In Black
TTITLE3=Big River
TTITLE4=The Lady Came From Baltimore
TTITLE5=Sunday Morning Coming Down
TTITLE6=These Hands
TTITLE7=Five Feet High And Rising
TTITLE8=Pickin' Time
TTITLE9=I Got Stripes
TTITLE10=Doin' My Time
TTITLE11=Cocaine Blues
TTITLE12=Give My Love To Rose
TTITLE13=A Boy Named Sue
TTITLE14=The Night They Drove Old Dixie Down
TTITLE15=The City Of New Orleans
TTITLE16=Hey Porter
TTITLE17=Folsom Prison Blues
TTITLE18=Wreck Of The Old 97
TTITLE19=Orange Blossom Special
TTITLE20=I Still Miss Someone
TTITLE21=Jackson (with June Carter)
TTITLE22=If I Were A Carpenter (with June Carter)
TTITLE23=It Ain't Me, Babe (with June Carter)
TTITLE24=Will The Circle Be Unbroken (with June Carter)
TTITLE25=Help Me
TTITLE26=I Walk The Line
EXTD=
EXTT0=
EXTT1=
EXTT2=
EXTT3=
EXTT4=
EXTT5=
EXTT6=
EXTT7=
EXTT8=
EXTT9=
EXTT10=
EXTT11=
EXTT12=
EXTT13=
EXTT14=
EXTT15=
EXTT16=
EXTT17=
EXTT18=
EXTT19=
EXTT20=
EXTT21=
EXTT22=
EXTT23=
EXTT24=
EXTT25=
EXTT26=
PLAYORDER=
